{
  "accessors": [
    {
      "bufferView": 2,
      "componentType": 5126,
      "count": 44,
      "max": [
        -3.0826120376586914,
        33.77362060546875,
        13.496221542358398
      ],
      "min": [
        -3.8280699253082275,
        26.683671951293945,
        8.912609100341797
      ],
      "type": "VEC3"
    },
    {
      "bufferView": 2,
      "byteOffset": 528,
      "componentType": 5126,
      "count": 44,
      "max": [
        0.999151885509491,
        0.48846495151519775,
        0.8276079893112183
      ],
      "min": [
        -0.9826753735542297,
        -0.48749735951423645,
        -0.8363425731658936
      ],
      "type": "VEC3"
    },
    {
      "bufferView": 1,
      "componentType": 5126,
      "count": 44,
      "max": [
        0.949999988079071,
        1.0
      ],
      "min": [
        -0.05000000074505806,
        0.0
      ],
      "type": "VEC2"
    },
    {
      "bufferView": 0,
      "componentType": 5125,
      "count": 180,
      "type": "SCALAR"
    },
    {
      "bufferView": 2,
      "byteOffset": 1056,
      "componentType": 5126,
      "count": 2715,
      "max": [
        4.497158050537109,
        15.898946762084961,
        20.495899200439453
      ],
      "min": [
        -9.948904037475586,
        -43.130916595458984,
        -9.408472061157227
      ],
      "type": "VEC3"
    },
    {
      "bufferView": 2,
      "byteOffset": 33636,
      "componentType": 5126,
      "count": 2715,
      "max": [
        0.9997789859771729,
        0.9985589981079102,
        0.9991063475608826
      ],
      "min": [
        -0.9976142644882202,
        -0.9997816681861877,
        -0.9995306134223938
      ],
      "type": "VEC3"
    },
    {
      "bufferView": 3,
      "componentType": 5126,
      "count": 2715,
      "max": [
        0.9998226165771484,
        0.9998283386230469,
        0.9970967173576355,
        1.0
      ],
      "min": [
        -0.9999892711639404,
        -0.9998494982719421,
        -0.9966289401054382,
        -1.0
      ],
      "type": "VEC4"
    },
    {
      "bufferView": 1,
      "byteOffset": 352,
      "componentType": 5126,
      "count": 2715,
      "max": [
        0.9981520175933838,
        0.9986879825592041
      ],
      "min": [
        0.003594999900087714,
        0.0033100000582635403
      ],
      "type": "VEC2"
    },
    {
      "bufferView": 0,
      "byteOffset": 720,
      "componentType": 5125,
      "count": 14598,
      "type": "SCALAR"
    },
    {
      "bufferView": 2,
      "byteOffset": 66216,
      "componentType": 5126,
      "count": 1029,
      "max": [
        -0.853007972240448,
        15.655731201171875,
        18.939821243286133
      ],
      "min": [
        -9.811399459838867,
        -27.140024185180664,
        -0.4351840019226074
      ],
      "type": "VEC3"
    },
    {
      "bufferView": 2,
      "byteOffset": 78564,
      "componentType": 5126,
      "count": 1029,
      "max": [
        0.03486599028110504,
        0.9797711372375488,
        0.999441385269165
      ],
      "min": [
        -0.9995490908622742,
        -0.7867122888565063,
        -0.9879279732704163
      ],
      "type": "VEC3"
    },
    {
      "bufferView": 3,
      "byteOffset": 43440,
      "componentType": 5126,
      "count": 1029,
      "max": [
        0.7553576827049255,
        0.15250393748283386,
        0.97458416223526,
        1.0
      ],
      "min": [
        -0.9796797633171082,
        -0.9998629093170166,
        -0.6218500137329102,
        1.0
      ],
      "type": "VEC4"
    },
    {
      "bufferView": 1,
      "byteOffset": 22072,
      "componentType": 5126,
      "count": 1029,
      "max": [
        0.896386981010437,
        0.49066799879074097
      ],
      "min": [
        0.005222999956458807,
        0.0020000000949949026
      ],
      "type": "VEC2"
    },
    {
      "bufferView": 0,
      "byteOffset": 59112,
      "componentType": 5125,
      "count": 5856,
      "type": "SCALAR"
    },
    {
      "bufferView": 2,
      "byteOffset": 90912,
      "componentType": 5126,
      "count": 8342,
      "max": [
        3.838550090789795,
        16.809768676757813,
        20.894977569580078
      ],
      "min": [
        -10.453760147094727,
        -46.74277877807617,
        -9.870027542114258
      ],
      "type": "VEC3"
    },
    {
      "bufferView": 2,
      "byteOffset": 191016,
      "componentType": 5126,
      "count": 8342,
      "max": [
        0.9999855160713196,
        0.999883234500885,
        0.9994179010391235
      ],
      "min": [
        -0.999984860420227,
        -0.9994591474533081,
        -0.9995173811912537
      ],
      "type": "VEC3"
    },
    {
      "bufferView": 3,
      "byteOffset": 59904,
      "componentType": 5126,
      "count": 8342,
      "max": [
        0.9991382360458374,
        0.999668300151825,
        0.9994908571243286,
        1.0
      ],
      "min": [
        -0.9993584156036377,
        -0.9998291730880737,
        -0.9998480677604675,
        -1.0
      ],
      "type": "VEC4"
    },
    {
      "bufferView": 1,
      "byteOffset": 30304,
      "componentType": 5126,
      "count": 8342,
      "max": [
        1.0010950565338135,
        0.9978460073471069
      ],
      "min": [
        0.002902999985963106,
        0.0024029999040067196
      ],
      "type": "VEC2"
    },
    {
      "bufferView": 0,
      "byteOffset": 82536,
      "componentType": 5125,
      "count": 43866,
      "type": "SCALAR"
    },
    {
      "bufferView": 2,
      "byteOffset": 291120,
      "componentType": 5126,
      "count": 1271,
      "max": [
        2.394083023071289,
        16.809768676757813,
        20.440460205078125
      ],
      "min": [
        -9.894399642944336,
        -43.413875579833984,
        -9.353445053100586
      ],
      "type": "VEC3"
    },
    {
      "bufferView": 2,
      "byteOffset": 306372,
      "componentType": 5126,
      "count": 1271,
      "max": [
        0.9991949796676636,
        0.9985638856887817,
        0.9948132634162903
      ],
      "min": [
        -0.9955193400382996,
        -0.9905093312263489,
        -0.9994267821311951
      ],
      "type": "VEC3"
    },
    {
      "bufferView": 3,
      "byteOffset": 193376,
      "componentType": 5126,
      "count": 1271,
      "max": [
        0.9994030594825745,
        0.9851821064949036,
        0.9998576045036316,
        1.0
      ],
      "min": [
        -0.9993659853935242,
        -0.999494194984436,
        -0.9921532273292542,
        -1.0
      ],
      "type": "VEC4"
    },
    {
      "bufferView": 1,
      "byteOffset": 97040,
      "componentType": 5126,
      "count": 1271,
      "max": [
        0.9977200031280518,
        0.9953809976577759
      ],
      "min": [
        0.002552000107243657,
        0.006874000187963247
      ],
      "type": "VEC2"
    },
    {
      "bufferView": 0,
      "byteOffset": 258000,
      "componentType": 5125,
      "count": 5484,
      "type": "SCALAR"
    },
    {
      "bufferView": 2,
      "byteOffset": 321624,
      "componentType": 5126,
      "count": 410,
      "max": [
        -2.1439929008483887,
        23.077390670776367,
        7.217578887939453
      ],
      "min": [
        -5.557436943054199,
        15.521284103393555,
        2.5942471027374268
      ],
      "type": "VEC3"
    },
    {
      "bufferView": 2,
      "byteOffset": 326544,
      "componentType": 5126,
      "count": 410,
      "max": [
        0.9961491227149963,
        0.9885144829750061,
        0.9980738759040833
      ],
      "min": [
        -0.9999749064445496,
        -0.9971501231193542,
        -0.9997830986976624
      ],
      "type": "VEC3"
    },
    {
      "bufferView": 0,
      "byteOffset": 279936,
      "componentType": 5125,
      "count": 2352,
      "type": "SCALAR"
    },
    {
      "bufferView": 2,
      "byteOffset": 331464,
      "componentType": 5126,
      "count": 257,
      "max": [
        -3.087786912918091,
        95.94925689697266,
        49.33555221557617
      ],
      "min": [
        -3.761902093887329,
        22.392608642578125,
        6.526430130004883
      ],
      "type": "VEC3"
    },
    {
      "bufferView": 2,
      "byteOffset": 334548,
      "componentType": 5126,
      "count": 257,
      "max": [
        0.971583366394043,
        0.9988622665405273,
        0.9809583425521851
      ],
      "min": [
        -0.9853532314300537,
        -0.9988700151443481,
        -0.9675484895706177
      ],
      "type": "VEC3"
    },
    {
      "bufferView": 1,
      "byteOffset": 107208,
      "componentType": 5126,
      "count": 257,
      "max": [
        0.9980000257492065,
        0.17087000608444214
      ],
      "min": [
        0.0020000000949949026,
        0.0020000000949949026
      ],
      "type": "VEC2"
    },
    {
      "bufferView": 0,
      "byteOffset": 289344,
      "componentType": 5125,
      "count": 1128,
      "type": "SCALAR"
    }
  ],
  "asset": {
    "extras": {
      "author": "Zverev Kirill (https://sketchfab.com/Zverev)",
      "license": "CC-BY-4.0 (http://creativecommons.org/licenses/by/4.0/)",
      "source": "https://sketchfab.com/3d-models/fishing-lure-chubby-38-4-8f35a109a817478084053110de4839f9",
      "title": "Fishing lure Chubby 38 #4"
    },
    "generator": "Sketchfab-12.64.0",
    "version": "2.0"
  },
  "bufferViews": [
    {
      "buffer": 0,
      "byteLength": 293856,
      "name": "floatBufferViews",
      "target": 34963
    },
    {
      "buffer": 0,
      "byteLength": 109264,
      "byteOffset": 293856,
      "byteStride": 8,
      "name": "floatBufferViews",
      "target": 34962
    },
    {
      "buffer": 0,
      "byteLength": 337632,
      "byteOffset": 403120,
      "byteStride": 12,
      "name": "floatBufferViews",
      "target": 34962
    },
    {
      "buffer": 0,
      "byteLength": 213712,
      "byteOffset": 740752,
      "byteStride": 16,
      "name": "floatBufferViews",
      "target": 34962
    }
  ],
  "buffers": [
    {
      "byteLength": 954464,
      "uri": "scene.bin"
    }
  ],
  "images": [
    {
      "uri": "textures/02___Default_baseColor.png"
    },
    {
      "uri": "textures/02___Default_metallicRoughness.png"
    },
    {
      "uri": "textures/02___Default_normal.png"
    },
    {
      "uri": "textures/Material__73_baseColor.png"
    }
  ],
  "materials": [
    {
      "alphaMode": "BLEND",
      "doubleSided": true,
      "name": "02___Default",
      "normalTexture": {
        "index": 2
      },
      "occlusionTexture": {
        "index": 1
      },
      "pbrMetallicRoughness": {
        "baseColorTexture": {
          "index": 0
        },
        "metallicRoughnessTexture": {
          "index": 1
        }
      }
    },
    {
      "doubleSided": true,
      "name": "Material__15",
      "pbrMetallicRoughness": {
        "baseColorFactor": [
          0.37965680822650505,
          0.37965680822650505,
          0.37965680822650505,
          1.0
        ],
        "roughnessFactor": 0.105
      }
    },
    {
      "alphaMode": "BLEND",
      "doubleSided": true,
      "name": "Material__73",
      "pbrMetallicRoughness": {
        "baseColorFactor": [
          0.3813233734395665,
          0.3813233734395665,
          0.3813233734395665,
          0.303
        ],
        "baseColorTexture": {
          "index": 3
        },
        "metallicFactor": 0.0,
        "roughnessFactor": 0.0
      }
    },
    {
      "doubleSided": true,
      "name": "Material__74",
      "pbrMetallicRoughness": {
        "baseColorFactor": [
          0.43112941224451584,
          0.43112941224451584,
          0.43112941224451584,
          1.0
        ],
        "roughnessFactor": 0.11800000000000001
      }
    }
  ],
  "meshes": [
    {
      "name": "Object_0",
      "primitives": [
        {
          "attributes": {
            "NORMAL": 1,
            "POSITION": 0,
            "TEXCOORD_0": 2
          },
          "indices": 3,
          "material": 3,
          "mode": 4
        }
      ]
    },
    {
      "name": "Object_1",
      "primitives": [
        {
          "attributes": {
            "NORMAL": 5,
            "POSITION": 4,
            "TANGENT": 6,
            "TEXCOORD_0": 7
          },
          "indices": 8,
          "material": 0,
          "mode": 4
        }
      ]
    },
    {
      "name": "Object_2",
      "primitives": [
        {
          "attributes": {
            "NORMAL": 10,
            "POSITION": 9,
            "TANGENT": 11,
            "TEXCOORD_0": 12
          },
          "indices": 13,
          "material": 0,
          "mode": 4
        }
      ]
    },
    {
      "name": "Object_3",
      "primitives": [
        {
          "attributes": {
            "NORMAL": 15,
            "POSITION": 14,
            "TANGENT": 16,
            "TEXCOORD_0": 17
          },
          "indices": 18,
          "material": 0,
          "mode": 4
        }
      ]
    },
    {
      "name": "Object_4",
      "primitives": [
        {
          "attributes": {
            "NORMAL": 20,
            "POSITION": 19,
            "TANGENT": 21,
            "TEXCOORD_0": 22
          },
          "indices": 23,
          "material": 0,
          "mode": 4
        }
      ]
    },
    {
      "name": "Object_5",
      "primitives": [
        {
          "attributes": {
            "NORMAL": 25,
            "POSITION": 24
          },
          "indices": 26,
          "material": 1,
          "mode": 4
        }
      ]
    },
    {
      "name": "Object_6",
      "primitives": [
        {
          "attributes": {
            "NORMAL": 28,
            "POSITION": 27,
            "TEXCOORD_0": 29
          },
          "indices": 30,
          "material": 2,
          "mode": 4
        }
      ]
    }
  ],
  "nodes": [
    {
      "children": [
        1
      ],
      "matrix": [
        1.0,
        0.0,
        0.0,
        0.0,
        0.0,
        2.220446049250313e-16,
        -1.0,
        0.0,
        0.0,
        1.0,
        2.220446049250313e-16,
        0.0,
        0.0,
        0.0,
        0.0,
        1.0
      ],
      "name": "Sketchfab_model"
    },
    {
      "children": [
        2,
        3,
        4,
        5,
        6,
        7,
        8
      ],
      "name": "Chubby38_mesh.obj.cleaner.materialmerger.gles"
    },
    {
      "mesh": 0,
      "name": "Object_2"
    },
    {
      "mesh": 1,
      "name": "Object_3"
    },
    {
      "mesh": 2,
      "name": "Object_4"
    },
    {
      "mesh": 3,
      "name": "Object_5"
    },
    {
      "mesh": 4,
      "name": "Object_6"
    },
    {
      "mesh": 5,
      "name": "Object_7"
    },
    {
      "mesh": 6,
      "name": "Object_8"
    }
  ],
  "samplers": [
    {
      "magFilter": 9729,
      "minFilter": 9987,
      "wrapS": 10497,
      "wrapT": 10497
    }
  ],
  "scene": 0,
  "scenes": [
    {
      "name": "Sketchfab_Scene",
      "nodes": [
        0
      ]
    }
  ],
  "textures": [
    {
      "sampler": 0,
      "source": 0
    },
    {
      "sampler": 0,
      "source": 1
    },
    {
      "sampler": 0,
      "source": 2
    },
    {
      "sampler": 0,
      "source": 3
    }
  ]
}
